<?xml version="1.0" standalone="no"?>
<!DOCTYPE svg PUBLIC "-//W3C//DTD SVG 20010904//EN"
 "http://www.w3.org/TR/2001/REC-SVG-20010904/DTD/svg10.dtd">
<svg version="1.0" xmlns="http://www.w3.org/2000/svg"
 width="950.000000pt" height="1458.000000pt" viewBox="0 0 950.000000 1458.000000"
 preserveAspectRatio="xMidYMid meet">
<metadata>
Created by potrace 1.15, written by Peter Selinger 2001-2017
</metadata>
<g transform="translate(0.000000,1458.000000) scale(0.100000,-0.100000)"
fill="#000000" stroke="none">
<path d="M2758 14497 c-69 -46 -213 -127 -320 -181 -310 -159 -529 -288 -638
-375 -88 -70 -386 -341 -472 -428 -47 -48 -131 -140 -185 -204 -54 -64 -135
-157 -180 -207 -46 -50 -109 -127 -142 -171 -50 -68 -60 -88 -66 -138 -4 -32
-16 -71 -27 -86 -17 -24 -42 -97 -33 -97 1 0 22 32 45 70 24 39 44 69 46 67 9
-9 -28 -111 -54 -149 -17 -25 -34 -58 -38 -74 -8 -34 1 -27 40 31 21 32 26 36
26 18 0 -12 -33 -66 -74 -121 -74 -100 -96 -134 -96 -149 0 -4 9 3 20 17 15
20 20 21 20 8 0 -9 -5 -20 -10 -23 -6 -3 -17 -21 -26 -38 l-15 -32 21 24 c37
43 20 8 -38 -78 -74 -108 -112 -174 -112 -192 0 -12 2 -11 11 1 9 12 9 11 4
-5 -17 -47 -12 -111 7 -99 5 3 3 -8 -6 -24 -17 -34 -22 -56 -6 -32 8 12 10 11
10 -6 0 -11 8 -29 18 -40 19 -21 23 -45 24 -154 0 -46 -4 -76 -11 -78 -6 -2
-11 -9 -11 -15 0 -7 -11 -25 -25 -40 -14 -15 -23 -27 -19 -27 4 0 0 -8 -8 -17
-19 -22 -32 -54 -29 -70 1 -7 -3 -13 -10 -13 -6 0 -9 -7 -5 -15 3 -8 -3 -19
-12 -25 -15 -8 -15 -11 -2 -20 13 -8 13 -11 1 -19 -8 -5 -10 -14 -6 -21 4 -7
2 -16 -6 -21 -12 -8 -12 -11 1 -18 12 -9 12 -11 -3 -17 -9 -3 -17 -13 -17 -21
0 -8 -5 -11 -10 -8 -6 3 -10 1 -10 -6 0 -10 -3 -10 -12 -1 -17 17 -33 15 -18
-3 10 -12 10 -15 -3 -15 -8 0 -22 -3 -30 -6 -19 -7 -41 55 -32 88 5 18 4 20
-4 8 -6 -8 -9 -33 -6 -55 2 -22 1 -31 -3 -20 -13 37 -28 24 -41 -36 -8 -33
-17 -62 -21 -64 -4 -3 3 41 16 96 26 111 28 122 14 98 -5 -9 -18 -55 -29 -103
-18 -84 -31 -117 -31 -83 0 16 25 129 36 164 5 16 4 16 -10 -1 -9 -11 -16 -28
-16 -38 0 -10 -5 -18 -11 -18 -7 0 -9 11 -6 30 4 16 2 32 -3 35 -12 8 -13 5
-41 -117 -15 -69 -26 -98 -36 -98 -9 0 -13 7 -10 18 23 85 40 205 31 220 -20
32 -32 22 -48 -42 -15 -60 -16 -257 -16 -2196 0 -1403 4 -2129 10 -2125 6 3
10 1 10 -5 0 -6 5 -8 10 -5 6 3 10 -1 10 -9 0 -9 4 -16 9 -16 17 0 23 -41 16
-112 -5 -46 -10 -66 -16 -57 -6 9 -9 1 -9 -24 0 -23 -4 -36 -10 -32 -6 4 -10
-11 -11 -37 -1 -36 -2 -39 -9 -18 -4 14 -8 -441 -8 -1010 0 -769 3 -1043 11
-1065 30 -75 85 -159 178 -270 145 -173 282 -344 307 -386 12 -20 22 -49 22
-63 0 -15 5 -37 12 -49 6 -12 15 -69 19 -127 4 -67 14 -127 28 -165 11 -32 21
-78 21 -100 0 -23 7 -50 15 -61 8 -10 15 -28 15 -40 1 -57 97 -238 183 -346
27 -33 60 -81 74 -107 45 -81 93 -179 93 -189 0 -12 82 -197 107 -242 11 -19
35 -62 53 -95 19 -33 64 -105 100 -160 85 -128 130 -200 130 -208 0 -4 11 -30
24 -59 13 -29 36 -79 50 -111 63 -138 82 -175 137 -257 32 -47 104 -135 160
-196 56 -60 155 -172 220 -249 215 -257 278 -305 583 -444 200 -91 219 -102
408 -227 197 -130 323 -193 508 -250 80 -25 202 -63 272 -85 l126 -39 1116 0
1115 0 21 22 c21 23 27 48 11 48 -5 0 -7 8 -4 18 2 10 27 26 61 39 46 17 51
22 29 22 -24 1 -26 4 -18 20 6 10 24 24 41 31 18 8 27 16 20 20 -6 4 0 11 15
18 15 7 30 10 35 7 11 -7 80 26 80 38 0 5 -8 6 -17 1 -29 -12 -106 -17 -100
-6 4 5 18 8 33 6 18 -2 55 15 115 52 49 31 89 59 89 65 0 5 -25 -7 -55 -27
-30 -21 -58 -35 -61 -32 -2 3 19 21 48 39 29 19 95 67 147 107 51 40 95 71 98
69 3 -4 -105 -95 -146 -124 -2 -2 -2 -5 1 -8 3 -3 56 35 117 84 61 50 111 87
111 83 0 -12 -53 -59 -153 -137 -48 -37 -87 -72 -87 -77 0 -12 13 -4 90 56 65
51 65 51 36 13 -47 -62 -293 -227 -339 -227 -17 0 -17 -2 -3 -15 14 -14 21
-13 68 11 63 31 185 112 247 162 24 20 42 32 39 26 -2 -5 -10 -23 -18 -39 -20
-46 -186 -159 -326 -221 -30 -13 -54 -27 -54 -31 0 -14 15 -29 33 -36 22 -8
97 21 94 36 -1 7 7 11 17 10 53 -4 234 118 450 303 273 234 315 286 471 589
57 110 106 197 168 299 7 11 59 90 116 175 93 139 132 197 192 281 11 15 20
53 24 95 5 64 4 68 -9 50 -49 -65 -45 -63 -46 -29 0 20 13 50 35 83 19 28 35
55 35 60 0 4 6 14 14 20 8 7 40 51 73 98 53 79 58 84 61 59 3 -20 -10 -48 -42
-97 -42 -62 -46 -73 -40 -109 4 -22 10 -40 14 -40 4 0 34 39 67 88 33 48 102
146 154 217 205 281 434 688 464 823 3 17 11 34 16 37 5 4 9 17 9 30 0 14 11
50 25 81 14 31 25 66 25 78 0 21 29 89 72 171 59 109 75 148 100 225 11 36 24
74 29 85 10 23 46 165 60 240 35 181 43 226 50 280 4 33 13 85 19 115 27 132
30 181 30 433 l0 267 58 73 c32 39 67 88 78 107 10 19 21 37 24 40 3 3 11 19
19 35 7 17 20 42 27 57 8 14 14 35 14 45 0 10 4 23 9 29 21 23 36 85 65 284 8
52 20 118 26 145 21 89 28 205 29 440 1 127 6 273 12 325 5 52 14 138 18 190
5 52 13 115 19 140 6 25 16 79 22 120 6 41 17 84 23 95 9 15 13 477 15 1845 3
1693 2 1829 -14 1880 -19 60 -66 187 -88 235 -8 17 -23 50 -34 75 -12 25 -37
81 -57 125 -20 44 -66 152 -102 240 -35 88 -69 164 -74 169 -5 6 -9 17 -9 25
0 15 -113 248 -140 291 -10 14 -34 54 -55 90 -75 128 -285 439 -351 521 -37
46 -109 129 -159 184 -51 55 -131 150 -180 210 -155 193 -290 347 -392 446
-108 106 -316 277 -433 356 -123 82 -365 222 -525 303 -175 89 -283 130 -650
245 l-270 85 -1540 -1 -1540 0 -127 -82z m1872 -402 c36 -7 86 -11 112 -8 44
5 129 -10 153 -27 6 -4 24 -11 42 -15 18 -3 49 -15 70 -24 21 -10 74 -31 118
-46 44 -15 119 -46 167 -69 48 -24 84 -38 80 -32 -3 6 5 4 19 -5 28 -19 98
-16 111 4 4 7 8 8 8 3 0 -5 6 -4 13 1 15 12 24 11 142 -23 33 -10 62 -21 63
-26 2 -4 10 -8 18 -8 9 0 37 -9 64 -21 34 -14 52 -29 58 -47 5 -15 9 -29 9
-32 0 -3 5 -15 12 -28 10 -18 15 -20 31 -12 11 6 20 7 21 3 0 -4 4 2 9 14 7
18 33 25 48 13 1 -2 5 -3 10 -4 4 -1 14 -6 22 -11 8 -5 22 -10 30 -10 8 0 20
-3 25 -6 6 -4 32 -10 58 -13 69 -10 78 -13 112 -27 17 -7 37 -14 45 -15 88
-15 107 -25 180 -98 25 -25 36 -29 75 -27 43 2 49 -1 90 -44 24 -25 48 -45 54
-45 5 0 20 10 33 23 19 19 30 21 62 16 21 -3 41 -11 45 -16 3 -6 15 -13 27
-17 11 -3 27 -18 34 -31 7 -14 18 -25 24 -25 6 0 26 -18 45 -40 19 -22 41 -40
50 -40 9 0 33 -11 53 -25 20 -14 42 -25 47 -25 6 0 11 -4 11 -8 0 -5 13 -22
30 -38 16 -16 30 -34 30 -41 0 -6 23 -35 50 -63 28 -28 50 -55 50 -60 0 -16
44 -100 52 -100 4 0 8 -7 8 -16 0 -8 4 -13 9 -9 5 3 12 1 16 -5 3 -5 13 -10
21 -10 9 0 35 -20 59 -43 35 -35 43 -50 40 -73 -3 -30 18 -64 41 -64 7 0 32
-19 56 -42 24 -23 59 -55 78 -71 34 -28 72 -87 126 -195 18 -37 42 -65 75 -89
27 -19 49 -38 49 -43 0 -4 21 -29 46 -56 58 -61 103 -133 106 -168 1 -14 8
-26 15 -26 8 0 16 -7 19 -15 4 -8 16 -15 28 -15 28 0 54 -38 32 -46 -24 -9
-71 11 -75 32 -6 32 -19 41 -69 49 -36 5 -59 18 -105 58 -72 62 -198 186 -212
208 -61 99 -76 114 -131 132 -25 9 -44 24 -54 43 -8 16 -24 36 -35 44 -22 16
-82 40 -103 40 -7 0 -39 18 -70 40 -137 97 -161 121 -162 165 0 12 -5 26 -12
33 -15 15 -19 42 -6 42 6 0 4 7 -3 17 -12 15 -12 16 1 8 9 -5 7 1 -5 15 -12
14 -14 20 -5 15 11 -6 10 -3 -3 12 -9 11 -14 23 -10 27 5 4 2 6 -6 4 -7 -1
-16 3 -19 11 -3 9 0 11 9 6 8 -5 11 -5 7 -1 -3 4 -8 6 -11 4 -2 -1 -12 4 -23
12 -10 8 -16 11 -12 6 3 -4 -2 -16 -13 -27 -10 -10 -19 -28 -19 -39 0 -33 -22
-71 -38 -65 -9 3 -19 0 -23 -6 -11 -19 -81 39 -74 62 3 9 1 20 -5 24 -21 13
-9 25 30 31 46 8 67 33 51 63 -6 10 -8 21 -5 24 7 7 -27 24 -46 22 -23 -2 -72
36 -66 51 3 8 0 13 -6 11 -12 -2 -71 94 -62 102 7 7 -36 32 -45 26 -5 -3 -13
0 -17 6 -5 8 -2 10 7 5 8 -4 7 -2 -2 6 -16 13 -19 19 -19 38 0 6 -4 10 -9 10
-5 0 -8 -33 -8 -72 2 -71 1 -73 -23 -75 -14 0 -34 -4 -46 -8 -15 -5 -32 3 -65
30 -83 68 -90 76 -78 91 6 8 8 14 3 14 -5 1 15 12 43 26 56 27 56 30 19 77
-19 25 -54 29 -66 9 -8 -14 -10 -14 -10 -2 0 12 -3 11 -11 -3 -15 -26 -47 -4
-55 40 l-7 36 -13 -24 c-14 -24 -14 -24 -9 6 l6 30 -16 -28 c-9 -16 -19 -26
-23 -23 -3 4 0 12 6 18 7 7 12 16 12 22 0 5 -3 7 -6 3 -3 -3 -11 -2 -18 4 -51
43 -107 78 -134 83 -17 4 -33 6 -34 5 -2 -2 -23 10 -48 27 -25 17 -51 29 -57
27 -7 -3 -13 0 -13 6 0 7 -26 11 -67 11 -73 0 -115 8 -108 19 2 4 -22 16 -53
26 -49 16 -74 20 -139 24 -7 1 -22 19 -33 41 -11 22 -28 40 -38 41 -9 0 -36 3
-59 5 -28 3 -43 1 -43 -6 0 -6 -5 -8 -10 -5 -6 3 -13 -2 -17 -12 -4 -10 -13
-24 -20 -31 -20 -21 -16 -30 20 -46 60 -27 61 -29 34 -69 -14 -20 -27 -33 -31
-30 -3 3 -44 7 -90 9 -72 3 -93 8 -138 33 -46 25 -66 29 -158 34 -98 5 -203
-7 -183 -22 4 -3 15 -19 23 -36 23 -45 219 -138 340 -160 70 -13 200 -78 200
-100 0 -5 -12 -18 -26 -29 -20 -14 -43 -18 -93 -18 -36 0 -91 -6 -121 -15 -56
-15 -325 -20 -417 -7 -25 4 -73 -1 -119 -11 -68 -15 -93 -16 -213 -5 -184 16
-178 14 -183 51 -6 39 23 69 66 69 58 0 104 19 128 53 12 18 44 58 70 90 53
65 52 61 38 88 -9 15 -22 19 -66 19 -30 0 -80 9 -111 20 -32 11 -78 20 -103
20 -66 0 -157 26 -209 60 -24 17 -55 30 -68 30 -13 0 -23 5 -23 10 0 6 5 10
10 10 22 0 86 70 115 125 37 71 69 103 142 141 112 59 223 75 343 49z m304
-973 l47 -21 -18 -27 -17 -27 -99 7 c-87 5 -104 4 -145 -15 -120 -53 -244 -54
-296 -2 -26 26 -42 60 -33 70 15 14 256 38 378 37 114 -1 144 -5 183 -22z
m-1257 -1157 c27 -38 85 -54 196 -55 111 0 150 -12 189 -59 31 -36 73 -41 113
-15 24 15 28 15 74 -5 52 -22 177 -46 226 -43 59 3 98 -18 171 -94 l71 -75
142 2 c136 2 142 1 166 -21 14 -13 25 -29 25 -37 0 -31 39 -53 93 -53 29 0 78
-7 108 -16 88 -26 316 -15 439 21 92 27 99 28 230 19 248 -15 329 -12 380 15
25 13 47 27 50 31 6 9 168 41 242 48 63 5 139 -12 212 -49 34 -17 89 -35 123
-40 34 -5 88 -21 120 -35 32 -15 69 -32 82 -38 36 -17 119 -104 143 -150 11
-22 38 -56 59 -74 52 -45 54 -92 7 -134 -17 -15 -37 -28 -44 -28 -7 0 -26 -12
-43 -26 -28 -23 -31 -31 -31 -85 0 -33 6 -72 14 -87 7 -15 19 -52 26 -82 12
-53 128 -296 153 -322 7 -7 23 -30 36 -50 12 -21 39 -52 60 -70 21 -18 53 -62
72 -98 19 -35 50 -80 70 -100 40 -39 79 -108 79 -138 0 -11 20 -59 45 -108 25
-48 45 -97 45 -108 0 -31 35 -83 67 -100 70 -36 83 -73 104 -296 6 -69 18
-141 26 -161 13 -34 12 -40 -12 -95 -28 -64 -27 -95 6 -152 13 -23 19 -53 19
-95 1 -34 7 -91 15 -127 24 -107 16 -250 -13 -250 -4 0 -22 13 -40 29 -24 23
-32 38 -32 65 0 19 5 38 10 41 6 3 10 26 10 51 0 24 -4 44 -10 44 -5 0 -10
-20 -10 -45 0 -42 -2 -45 -27 -45 -24 0 -32 8 -53 52 -22 45 -35 57 -95 92
-38 21 -74 45 -80 52 -15 19 -112 60 -175 74 -37 8 -90 10 -160 5 -58 -4 -183
-6 -278 -5 -194 2 -219 -3 -246 -54 -18 -35 -63 -59 -128 -70 -21 -4 -38 -11
-38 -16 0 -6 -9 -10 -19 -10 -11 0 -38 -16 -62 -36 -23 -19 -57 -41 -76 -49
-18 -8 -33 -18 -33 -24 0 -5 -18 -17 -40 -27 -22 -10 -40 -21 -40 -26 0 -16
-108 -88 -180 -119 -90 -40 -194 -101 -235 -138 -16 -15 -59 -40 -95 -54 -41
-18 -87 -47 -124 -82 -33 -30 -62 -55 -65 -55 -6 0 -61 -83 -70 -105 -2 -5
-21 -29 -42 -52 -22 -24 -39 -51 -39 -62 0 -10 -11 -26 -24 -34 -13 -9 -30
-33 -37 -54 -13 -42 -24 -53 -55 -53 -29 0 -50 -46 -69 -153 -15 -79 -15 -90
-2 -111 9 -13 19 -41 23 -62 3 -21 11 -48 17 -58 5 -11 12 -67 14 -125 3 -79
10 -123 30 -180 25 -73 26 -87 30 -324 3 -217 7 -269 33 -420 63 -369 78 -432
127 -524 13 -25 27 -76 32 -123 11 -86 41 -168 78 -213 13 -16 23 -32 23 -36
0 -5 32 -11 71 -15 96 -9 114 -20 58 -34 -69 -17 -85 -33 -73 -73 7 -26 18
-37 43 -45 20 -6 41 -24 54 -45 12 -19 29 -40 39 -47 30 -22 11 -32 -60 -32
-37 0 -103 -7 -146 -15 -50 -10 -131 -15 -215 -14 -114 1 -142 -2 -171 -17
-31 -16 -63 -19 -265 -20 -183 -1 -244 -5 -296 -19 l-67 -17 -26 23 c-32 28
-33 39 -2 68 52 49 52 68 1 176 l-46 98 24 26 c30 33 39 55 43 108 3 39 1 43
-24 49 -15 4 -40 16 -56 27 -28 20 -28 22 -22 86 4 36 11 70 17 76 5 5 9 17 9
26 0 10 12 31 26 48 20 24 23 34 15 49 -15 28 3 321 28 470 l22 123 -29 59
c-25 53 -27 62 -14 85 15 30 10 64 -19 131 -14 31 -21 74 -24 145 -3 81 -8
108 -26 137 -14 24 -25 64 -30 112 -16 147 -26 196 -53 245 -29 52 -30 80 -5
145 8 19 26 46 42 61 29 26 27 39 -6 39 -10 0 -35 16 -54 35 -19 19 -44 35
-54 35 -26 0 -59 35 -59 63 0 42 -31 59 -98 54 -72 -5 -85 3 -112 75 -17 46
-33 66 -99 122 -64 54 -88 68 -131 76 -28 5 -58 17 -67 26 -41 41 -101 68
-179 81 -45 7 -109 26 -145 43 -39 18 -80 30 -106 30 -28 0 -63 11 -110 36
-74 40 -143 64 -184 64 -14 0 -51 18 -82 40 -50 36 -62 40 -114 40 -32 0 -142
9 -246 21 -168 20 -189 20 -205 6 -30 -26 -165 -75 -226 -81 -34 -4 -89 -21
-134 -41 -49 -23 -90 -35 -119 -35 -43 0 -44 1 -64 48 -31 72 -33 102 -10 179
27 89 20 110 -49 152 -28 17 -53 38 -56 46 -4 8 -13 15 -22 15 -8 0 -24 7 -34
17 -15 13 -18 32 -18 107 0 68 -4 98 -16 114 -15 23 -15 23 35 44 50 22 51 23
51 64 0 24 -4 46 -10 49 -5 3 -10 19 -10 34 0 15 -6 35 -13 45 -9 12 -12 48
-11 114 2 82 -2 107 -23 162 -21 56 -24 75 -18 137 7 74 -4 113 -39 142 -13
11 -12 20 11 79 37 97 62 191 63 237 1 66 53 197 95 239 17 17 24 33 21 44 -9
26 46 74 96 87 57 14 79 47 83 124 3 51 8 66 32 89 16 16 52 37 82 47 45 15
63 16 127 6 74 -11 75 -11 135 20 34 18 65 42 71 54 6 13 27 29 47 38 20 8 67
37 104 66 38 28 86 60 107 71 22 11 47 34 56 53 10 17 29 48 44 67 15 19 35
56 44 81 9 26 34 71 56 100 115 158 147 214 153 266 7 65 22 88 70 109 21 10
52 35 69 55 19 22 44 41 62 45 17 4 46 16 66 28 19 12 57 32 83 44 26 13 51
30 54 38 5 14 34 31 55 33 3 1 15 -10 25 -24z m4423 -3582 c0 -10 12 -38 26
-63 18 -30 31 -76 40 -140 8 -52 21 -113 29 -135 8 -22 24 -92 35 -155 12 -63
26 -135 32 -160 5 -25 12 -80 15 -124 4 -70 3 -78 -12 -72 -9 3 -25 6 -34 6
-10 0 -32 21 -50 46 -32 44 -34 50 -41 171 -6 110 -10 128 -28 142 -18 14 -21
30 -26 156 -3 77 -8 162 -12 188 -7 57 3 157 17 157 5 0 9 -8 9 -17z m-5405
-363 c50 -7 93 -15 96 -19 4 -3 9 -18 13 -32 4 -20 1 -28 -12 -33 -26 -9 -92
-48 -141 -84 -53 -39 -86 -41 -113 -7 -19 25 -23 26 -135 24 -63 0 -117 2
-120 5 -11 10 4 17 47 23 27 4 44 13 52 26 6 11 34 43 62 70 50 48 51 48 106
44 30 -2 96 -10 145 -17z m-813 -1512 c12 -41 40 -68 69 -68 13 0 19 -13 24
-51 8 -56 2 -69 -23 -51 -9 7 -25 15 -34 18 -10 4 -20 14 -23 24 -11 35 -53
70 -83 70 -63 0 -66 50 -5 93 43 31 57 25 75 -35z m340 -225 c5 -17 26 -51 48
-75 21 -24 45 -50 52 -58 7 -8 13 -37 13 -64 0 -41 4 -52 27 -69 29 -21 47
-23 149 -12 43 5 73 4 87 -4 12 -6 54 -16 93 -20 40 -5 75 -15 79 -21 9 -14 2
-49 -12 -67 -7 -8 -5 -18 6 -28 8 -9 21 -24 28 -33 26 -34 86 -45 233 -44 76
1 164 6 195 11 30 5 100 13 156 16 84 6 107 4 133 -10 40 -20 57 -15 112 34
37 34 52 41 104 46 60 7 154 45 176 71 6 8 23 14 38 14 15 0 39 13 58 30 37
35 50 36 81 11 27 -23 27 -27 1 -85 -23 -52 -23 -51 40 -113 41 -39 71 -42
154 -13 l57 20 53 -35 c28 -19 57 -35 64 -35 6 0 24 -6 40 -14 15 -8 41 -19
56 -25 l29 -11 -28 -33 c-23 -28 -36 -33 -98 -42 -77 -11 -94 -29 -61 -65 26
-29 37 -100 19 -127 -41 -65 -54 -97 -54 -139 0 -50 -17 -94 -29 -75 -4 6 -24
14 -44 18 -31 5 -42 0 -79 -30 -53 -43 -103 -71 -143 -81 -61 -14 -90 -37
-124 -100 -46 -87 -81 -109 -186 -114 l-84 -4 -20 -49 c-12 -26 -21 -54 -21
-62 0 -8 -8 -25 -18 -38 -10 -13 -33 -49 -51 -79 -38 -63 -41 -66 -136 -122
-66 -39 -76 -42 -160 -46 -49 -3 -102 -11 -117 -18 -15 -8 -38 -14 -53 -14
-21 0 -25 -5 -25 -30 0 -27 -3 -30 -34 -30 -27 0 -41 -8 -70 -40 -20 -22 -36
-48 -36 -57 0 -29 -42 -80 -75 -92 -38 -13 -44 -12 -152 41 -133 65 -199 64
-233 -2 -11 -22 -32 -46 -47 -54 -25 -13 -30 -12 -55 6 -25 17 -28 25 -28 80
0 72 -19 94 -92 104 -40 6 -49 11 -63 39 -8 19 -19 35 -23 37 -12 5 -42 101
-42 136 0 18 -5 49 -12 70 l-12 39 -28 -27 c-25 -24 -28 -35 -30 -96 l-2 -69
-3 63 c-4 61 -4 62 -33 62 -27 0 -30 3 -30 33 0 17 7 41 15 51 19 26 19 113 0
150 -8 15 -15 41 -15 57 0 16 -5 29 -12 29 -8 1 -6 6 5 14 23 18 22 36 -3 36
-21 0 -23 19 -25 282 0 32 -6 62 -12 69 -24 24 -15 78 17 110 28 28 29 32 15
53 -14 21 -13 27 9 69 14 25 32 58 42 71 10 16 17 49 18 88 1 54 4 64 23 74
13 6 38 28 55 49 56 65 92 99 126 117 18 10 35 24 38 33 9 21 -38 69 -98 102
l-48 26 0 55 c0 70 19 94 69 90 30 -3 36 -8 43 -35z m7096 -228 c-4 -16 -8
-50 -8 -76 0 -71 -40 -267 -74 -363 l-13 -39 -5 38 c-2 20 4 69 14 109 30 119
58 287 58 345 0 53 0 54 18 35 15 -15 17 -26 10 -49z m-8721 -182 c17 -10 38
-39 56 -77 15 -34 34 -74 42 -89 8 -16 15 -35 15 -43 0 -9 5 -12 10 -9 6 3 10
0 10 -7 0 -7 9 -19 20 -26 11 -7 20 -19 20 -27 0 -8 21 -36 48 -64 75 -79 116
-129 129 -158 16 -39 16 -292 0 -314 -24 -33 -163 -52 -206 -30 -26 14 -121
109 -121 121 0 6 -4 18 -9 28 -5 9 -15 32 -21 50 -7 17 -16 32 -21 32 -10 0
-30 69 -35 120 -6 58 -18 341 -17 397 1 48 27 113 44 113 4 0 20 -7 36 -17z
m5710 -324 c15 -6 68 -15 116 -20 49 -6 96 -17 105 -25 101 -85 237 -226 253
-261 33 -77 30 -149 -10 -192 -25 -27 -36 -31 -81 -31 -41 0 -64 7 -110 34
-31 19 -73 37 -91 41 -55 12 -92 34 -119 70 -14 19 -59 59 -100 89 -41 30
-113 87 -160 128 -71 62 -85 78 -86 106 -2 31 0 33 55 48 31 8 61 17 66 19 23
8 136 4 162 -6z m-1892 -706 c4 -75 11 -146 15 -158 7 -18 4 -25 -17 -36 -23
-12 -27 -11 -44 10 -10 13 -19 31 -19 41 0 10 -6 25 -12 32 -48 52 -60 142
-30 211 16 36 26 46 49 49 15 2 33 0 39 -4 7 -5 14 -64 19 -145z m4090 -158
c21 -31 46 -60 56 -65 16 -9 26 -35 77 -200 9 -30 21 -58 27 -62 5 -4 6 -8 2
-8 -5 0 5 -25 23 -56 27 -49 30 -60 21 -86 -6 -17 -8 -34 -5 -39 10 -17 13
-130 3 -124 -5 4 -9 1 -9 -5 0 -6 -4 -9 -9 -5 -5 3 -12 1 -16 -5 -4 -6 -57
-10 -130 -10 l-124 0 -25 33 c-23 31 -26 43 -26 123 0 49 5 105 10 125 5 19
12 85 15 145 7 147 16 266 20 282 3 6 15 12 28 12 17 0 34 -15 62 -55z m-4259
-485 c56 -17 74 -27 88 -52 18 -29 18 -31 -1 -56 -16 -22 -43 -84 -43 -98 0
-13 49 0 63 16 9 11 23 20 30 20 8 0 22 9 32 20 12 13 31 20 54 20 30 0 42 -7
68 -39 29 -35 31 -40 17 -52 -9 -7 -46 -16 -82 -20 -77 -8 -92 -22 -92 -86 0
-40 20 -88 45 -105 5 -4 27 -8 49 -8 29 0 43 6 58 25 27 35 44 31 70 -15 18
-31 28 -39 43 -35 11 2 28 5 38 5 9 0 17 5 17 11 0 6 12 25 26 42 36 43 77 46
120 7 19 -16 38 -30 43 -30 4 0 22 -13 40 -29 18 -16 44 -32 58 -36 26 -6 123
-75 107 -75 -5 -1 -29 -5 -53 -9 -31 -6 -56 -5 -83 5 -29 10 -68 12 -148 7
-101 -6 -110 -4 -135 16 -15 11 -35 21 -45 21 -36 0 -76 22 -92 50 -14 25 -23
30 -56 30 -30 0 -45 -7 -68 -31 -26 -27 -34 -30 -74 -26 -25 2 -58 9 -75 15
-16 6 -65 19 -107 28 -43 10 -78 22 -78 26 0 4 -14 8 -31 8 -26 0 -33 -6 -50
-45 -11 -24 -24 -47 -28 -50 -14 -8 -41 5 -41 20 0 7 -7 15 -15 19 -33 12 -2
72 46 89 20 7 32 62 19 87 -10 19 -100 46 -124 37 -7 -3 -19 -1 -26 3 -11 7
-11 14 0 39 12 29 13 30 29 12 13 -15 25 -17 71 -12 63 7 71 21 46 73 -20 40
-20 59 2 100 27 52 59 65 69 27 4 -15 12 -19 32 -17 20 2 31 13 45 45 15 33
22 40 35 33 9 -5 48 -18 87 -30z m1932 -140 c9 -5 34 -17 55 -26 32 -14 106
-90 96 -98 -46 -34 -79 -49 -129 -58 -78 -13 -110 -6 -110 27 0 22 -5 25 -33
25 -30 0 -35 4 -45 36 -12 41 1 74 29 74 9 0 22 7 29 15 14 17 81 20 108 5z
m-51 -606 c19 -5 20 -9 11 -37 -6 -18 -14 -36 -18 -42 -4 -5 -13 -32 -19 -60
-7 -27 -19 -57 -27 -65 -8 -8 -36 -42 -62 -75 -26 -33 -54 -66 -62 -72 -22
-18 -76 -33 -151 -42 -61 -8 -68 -12 -110 -55 -33 -35 -65 -56 -129 -82 -84
-35 -86 -36 -195 -30 -63 3 -127 1 -150 -5 -22 -6 -56 -14 -76 -19 -20 -5 -85
-10 -145 -11 -108 -2 -109 -2 -175 34 l-66 37 -60 -20 c-145 -47 -219 -36
-269 43 -33 53 -67 69 -127 61 -74 -10 -91 4 -111 88 -10 40 -20 81 -22 90 -3
10 3 21 17 29 41 21 150 39 208 33 46 -5 62 -3 91 14 30 18 41 20 80 11 24 -6
50 -15 57 -21 24 -19 172 -22 243 -3 72 19 177 21 230 5 60 -17 121 -12 203
20 43 17 95 30 115 30 20 1 60 9 89 18 38 14 66 17 110 12 79 -9 113 2 178 59
l54 48 63 -8 c35 -5 78 -13 97 -18 35 -11 58 -4 81 23 14 18 16 18 47 10z
m2339 -198 c-8 -19 -11 -38 -6 -41 5 -3 10 0 13 7 2 7 3 0 1 -16 -2 -16 -1
-58 2 -94 l7 -64 15 34 c8 18 18 44 22 58 7 20 8 15 9 -25 1 -58 -50 -181
-144 -346 -48 -83 -61 -99 -82 -99 l-24 0 19 28 c10 15 31 50 47 77 24 43 25
47 7 31 -12 -11 -22 -15 -22 -10 0 5 -5 1 -11 -8 -12 -22 -33 -24 -25 -3 8 21
-11 19 -24 -2 -9 -14 -10 -11 -5 17 6 34 5 34 -8 11 -13 -21 -14 -16 -12 55 3
100 3 97 18 88 7 -5 6 0 -3 11 -8 10 -10 16 -4 12 6 -3 16 5 23 19 16 35 13
44 -4 14 -8 -14 -14 -20 -14 -15 0 6 9 26 20 45 11 19 17 26 14 15 -5 -16 -4
-17 6 -8 10 10 9 15 -1 28 -9 11 -9 15 -1 15 7 0 9 5 6 10 -3 6 -1 10 5 10 7
0 9 7 6 16 -4 10 -2 13 6 8 8 -5 9 -2 5 9 -3 10 -4 24 -1 32 5 13 9 13 22 3
14 -12 14 -10 2 12 -12 22 -12 24 2 12 13 -10 17 -10 22 3 3 9 1 25 -4 35 -18
33 -11 36 10 5 11 -17 20 -23 20 -15 0 13 1 13 10 0 9 -13 10 -13 10 0 0 12 2
13 9 1 6 -9 14 0 27 35 10 26 20 42 21 37 2 -6 -3 -27 -11 -47z m-5293 33 c2
-2 18 -27 35 -55 35 -56 39 -86 17 -130 -18 -37 -29 -418 -14 -476 13 -50 49
-68 135 -68 l67 0 44 47 c23 26 43 55 43 64 0 26 29 89 41 89 21 0 41 -72 35
-124 -5 -46 -2 -56 29 -106 20 -30 41 -67 47 -82 7 -16 18 -28 25 -28 18 0 17
-70 -1 -95 -14 -22 -26 -83 -19 -103 5 -12 62 -47 68 -40 1 2 14 29 29 61 31
69 35 117 8 117 -10 0 -22 12 -29 30 -6 17 -19 30 -28 30 -18 0 -18 3 -3 105
2 14 -8 25 -35 40 -36 19 -38 22 -32 55 4 19 8 66 8 103 2 75 14 91 65 85 32
-4 61 -54 62 -107 0 -36 32 -81 57 -81 15 0 35 -42 52 -106 10 -36 26 -59 71
-99 36 -33 82 -95 91 -125 7 -19 15 -39 19 -45 4 -5 11 -24 14 -41 8 -36 -29
-105 -54 -101 -17 3 -38 79 -39 144 -1 23 -5 44 -10 47 -16 10 -36 -58 -35
-121 0 -49 -3 -64 -15 -68 -9 -3 -29 -16 -44 -29 l-29 -23 26 -42 c28 -44 40
-49 73 -26 19 14 21 13 27 -18 3 -17 16 -58 28 -91 21 -54 27 -60 82 -87 33
-16 72 -29 87 -29 66 0 149 -49 149 -89 0 -32 39 -69 92 -87 43 -14 68 -15
152 -8 145 11 270 10 355 -6 64 -11 77 -11 106 3 18 9 62 19 97 22 79 8 198
31 263 51 67 21 193 44 285 53 41 4 85 13 97 19 12 7 35 12 52 12 16 0 51 11
77 25 62 33 80 32 106 -10 20 -31 27 -34 53 -29 17 4 44 13 60 22 43 22 192
139 199 157 3 8 12 12 21 9 8 -3 15 -1 15 4 0 6 9 13 19 17 11 3 23 15 27 27
3 11 19 40 34 64 26 42 28 43 38 21 6 -12 11 -16 11 -9 2 26 20 10 23 -20 2
-25 7 -32 21 -30 13 2 17 -2 15 -15 -2 -13 2 -17 16 -15 11 2 15 -1 11 -7 -3
-6 -1 -11 4 -11 6 0 11 5 11 10 0 6 5 10 11 10 5 0 7 -5 3 -11 -5 -8 1 -10 19
-7 19 4 27 0 30 -14 3 -10 1 -16 -4 -12 -5 3 -9 1 -9 -5 0 -5 5 -13 10 -16 7
-4 7 -13 0 -26 -6 -10 -8 -19 -5 -19 3 0 -4 -18 -15 -40 -11 -22 -26 -40 -32
-40 -6 0 -9 -3 -6 -6 4 -3 -6 -18 -20 -32 -15 -15 -29 -34 -31 -42 -5 -24 -9
-44 -10 -52 -1 -5 -10 -17 -22 -29 -19 -19 -26 -35 -28 -65 -1 -6 -16 -31 -35
-55 -19 -23 -33 -46 -30 -50 2 -4 0 -9 -6 -11 -9 -3 -18 -35 -19 -74 -1 -13
-33 -54 -79 -100 -55 -56 -87 -99 -110 -147 -17 -37 -32 -72 -32 -77 0 -6 -9
-10 -19 -10 -11 0 -23 -5 -26 -11 -6 -9 -38 -8 -90 4 -11 3 -24 6 -30 7 -28 6
-45 -3 -67 -38 -43 -62 -72 -91 -106 -103 -17 -6 -32 -14 -32 -18 0 -5 -14 -8
-30 -9 -17 0 -28 4 -25 9 4 5 1 9 -4 9 -6 0 -11 -6 -11 -12 0 -9 -4 -8 -10 2
-9 13 -11 13 -20 0 -8 -12 -12 -13 -19 -2 -7 11 -9 10 -15 -3 -3 -9 -10 -14
-14 -11 -5 3 -23 -9 -40 -26 -18 -16 -32 -27 -32 -23 0 5 -8 1 -18 -8 -10 -10
-22 -14 -25 -11 -4 4 -12 2 -19 -3 -12 -9 -70 -17 -110 -15 -63 3 -74 5 -86
15 -10 8 -16 7 -22 -3 -7 -11 -11 -11 -24 -1 -11 9 -20 10 -28 4 -7 -6 -41
-13 -76 -17 -35 -3 -71 -10 -82 -16 -10 -5 -33 -10 -51 -10 -18 0 -42 -8 -53
-19 -42 -37 -111 -49 -266 -46 -80 2 -156 7 -170 10 -14 4 -40 9 -59 11 -34 5
-91 38 -91 54 0 8 -53 21 -100 25 -44 3 -74 17 -110 49 -20 18 -58 47 -85 66
-51 34 -103 80 -91 80 4 0 -7 13 -24 30 -17 16 -28 30 -25 30 3 0 -6 11 -20
25 -14 14 -25 30 -25 34 0 5 -19 21 -42 37 -24 16 -46 33 -50 39 -4 5 -8 7 -8
3 0 -12 -50 39 -50 51 0 6 -4 11 -9 11 -5 0 -8 16 -6 36 4 56 -14 94 -45 92
-40 -2 -44 -10 -19 -29 21 -16 22 -20 9 -30 -11 -8 -12 -12 -2 -16 6 -2 12 -9
12 -14 0 -6 -5 -7 -12 -3 -8 5 -9 2 -5 -9 3 -10 2 -17 -3 -17 -5 0 -7 -7 -4
-15 4 -8 3 -15 -1 -15 -15 0 -95 52 -90 59 2 5 -6 19 -18 32 -12 13 -21 26
-20 29 1 3 -10 6 -23 6 -13 1 -21 -2 -18 -7 3 -5 2 -9 -3 -9 -12 1 -43 26 -38
32 3 2 -4 22 -15 43 -11 22 -20 45 -20 52 0 8 -11 19 -25 25 -30 14 -33 33 -5
25 19 -5 21 -2 18 46 -3 48 -5 52 -36 61 -22 6 -41 5 -57 -2 -23 -11 -28 -9
-53 28 -22 31 -33 39 -59 40 -17 0 -47 10 -67 23 -28 18 -36 30 -42 65 -3 23
-10 45 -15 48 -5 3 -9 51 -9 108 0 100 -1 103 -30 136 -24 27 -29 40 -25 61 4
19 1 33 -12 46 -36 35 -74 93 -88 134 -8 22 -24 54 -36 70 -17 25 -20 38 -14
67 5 20 9 62 9 92 l1 55 -35 3 c-54 5 -80 36 -80 94 0 39 -5 54 -25 73 -13 14
-32 25 -43 25 -18 0 -80 -29 -114 -52 -22 -16 -61 2 -85 38 -20 32 -29 215
-11 248 6 11 11 33 10 48 0 15 4 28 9 28 5 0 9 9 9 20 0 25 32 100 42 100 5 0
8 -6 8 -14 0 -18 55 -46 90 -46 28 0 90 18 90 27 0 2 -14 17 -31 32 -25 23
-30 35 -27 62 3 32 5 34 43 37 38 3 42 0 58 -33 9 -20 17 -51 17 -69 0 -25 7
-38 26 -50 24 -17 28 -16 92 14 37 17 74 35 82 39 8 5 16 25 18 47 4 47 15 62
50 67 33 4 90 2 95 -4z m3752 -32 c22 -23 47 -53 55 -66 13 -19 21 -22 60 -18
25 2 54 8 65 11 27 9 56 -37 37 -56 -7 -7 -12 -25 -12 -40 0 -16 -9 -39 -21
-51 -11 -12 -25 -33 -30 -46 -7 -17 -15 -22 -29 -18 -11 3 -22 1 -25 -3 -3 -5
-25 -3 -48 4 -23 7 -53 9 -67 5 -14 -4 -39 -7 -57 -8 -17 -1 -45 -9 -62 -18
-27 -16 -31 -23 -31 -64 0 -37 -5 -50 -29 -73 -24 -23 -27 -32 -21 -59 4 -18
3 -41 -1 -52 -4 -11 -8 -39 -8 -62 -1 -42 -2 -43 -33 -43 -68 0 -128 102 -83
140 8 7 15 20 15 29 0 9 7 29 15 45 17 32 19 77 6 124 -11 36 5 113 33 167 9
17 16 38 16 47 0 9 5 40 11 68 10 47 12 50 42 50 18 1 57 7 87 15 75 18 70 20
115 -28z m-3297 -277 c28 -62 30 -76 12 -129 -12 -37 -17 -41 -45 -41 -18 0
-38 6 -44 14 -11 13 -7 64 9 101 5 11 14 39 20 63 6 23 14 42 18 42 4 0 18
-23 30 -50z m2894 -54 c4 -6 5 -67 2 -136 -6 -122 -7 -126 -37 -157 -28 -29
-32 -31 -47 -18 -9 8 -24 15 -33 15 -28 0 -39 35 -26 83 6 23 14 47 18 52 4 6
18 54 31 107 l24 97 30 -16 c17 -9 34 -21 38 -27z m328 -393 c0 -10 -7 -26
-15 -36 -18 -25 -9 -53 12 -35 14 11 15 8 8 -22 -7 -33 -7 -34 11 -20 16 14
17 13 11 -2 -4 -10 -10 -26 -13 -35 -5 -17 -4 -17 9 0 14 17 15 17 13 -7 0
-13 -3 -22 -5 -20 -3 2 -16 -6 -30 -18 -14 -13 -19 -15 -12 -5 12 15 12 17 0
12 -8 -3 -26 -24 -42 -46 -15 -22 -32 -37 -37 -34 -5 3 -12 0 -16 -6 -4 -8 -3
-9 4 -5 18 11 14 -5 -9 -43 -11 -18 -18 -39 -15 -46 2 -7 -15 -45 -40 -84 -45
-73 -51 -87 -34 -76 6 3 10 3 10 -2 -1 -12 -26 -43 -35 -43 -4 0 -2 7 5 15 9
11 10 15 1 15 -8 0 -10 8 -6 21 5 15 4 19 -4 15 -7 -4 -11 1 -11 13 0 13 -5
19 -14 15 -8 -3 -16 4 -19 18 -5 18 -9 20 -18 11 -24 -24 -36 3 -28 64 4 32 8
65 8 74 1 24 35 58 70 70 17 6 31 15 31 20 0 5 6 9 13 9 12 0 87 82 87 95 0 4
19 36 43 71 41 63 67 81 67 47z m349 -1009 c3 -4 -11 -4 -31 -1 -47 7 -49 1
-5 -12 25 -7 27 -9 10 -10 -13 -1 -23 -5 -23 -10 0 -5 10 -7 23 -4 16 3 18 2
9 -5 -8 -5 -13 -11 -12 -13 5 -13 -15 -39 -30 -39 -11 0 -22 -5 -26 -11 -4 -8
1 -9 16 -4 15 5 20 4 16 -4 -4 -6 -19 -11 -34 -12 l-27 -1 25 -8 c25 -8 25 -8
-5 -10 -29 -2 -29 -2 -5 -9 25 -7 25 -8 3 -15 -12 -4 -34 -4 -50 -1 -28 5 -28
5 -3 -5 14 -6 33 -9 42 -6 10 2 16 0 12 -5 -3 -5 -17 -9 -32 -10 l-27 -1 25
-8 c25 -8 25 -8 -5 -10 -29 -2 -29 -2 -5 -9 l25 -7 -22 -8 c-13 -4 -33 -5 -45
-1 -21 5 -21 5 -5 -5 10 -7 27 -10 38 -7 10 3 17 1 13 -4 -3 -5 -15 -9 -27
-10 -21 0 -21 -1 -2 -9 l20 -9 -20 -1 c-13 -1 -15 -3 -6 -7 11 -5 11 -7 0 -14
-11 -7 -11 -9 -1 -9 9 0 8 -6 -4 -25 -8 -13 -13 -29 -9 -35 3 -5 1 -10 -4 -10
-6 0 -11 -7 -11 -15 0 -9 -7 -18 -15 -21 -8 -4 -13 -10 -10 -14 2 -4 -6 -19
-19 -33 -13 -14 -21 -29 -18 -32 4 -3 -1 -3 -9 0 -9 3 -22 -2 -30 -11 -12 -16
-12 -17 1 -10 8 4 6 0 -4 -8 -11 -9 -16 -16 -12 -16 5 0 3 -6 -3 -13 -6 -8 -8
-16 -5 -19 3 -3 -7 -15 -22 -27 -15 -11 -23 -21 -19 -21 4 0 2 -6 -4 -14 -19
-23 7 -31 32 -10 12 10 7 2 -11 -17 -18 -20 -35 -45 -36 -55 -2 -11 -7 -19
-12 -19 -15 0 -35 -16 -29 -24 2 -5 -8 -19 -23 -32 -20 -18 -23 -19 -12 -4 11
15 8 14 -12 -4 -25 -22 -30 -50 -7 -35 5 3 6 10 3 16 -4 6 -2 8 3 5 26 -16 0
-107 -30 -107 -5 0 -2 9 8 20 10 11 15 20 10 20 -4 0 -2 7 5 15 26 32 -4 12
-71 -45 -39 -33 -75 -58 -80 -54 -6 4 -5 12 3 22 7 9 -6 2 -30 -17 -23 -18
-40 -36 -37 -41 3 -5 2 -10 -2 -13 -5 -2 -2 -2 5 0 8 2 10 -2 6 -10 -6 -9 -4
-9 8 1 8 7 22 10 31 6 8 -3 18 0 23 7 5 8 2 11 -8 7 -8 -4 -21 -2 -29 4 -11 8
-10 9 4 4 10 -3 16 -2 13 2 -2 4 4 9 15 9 12 1 17 -3 13 -9 -4 -7 -2 -8 5 -4
6 4 9 12 6 17 -3 5 0 6 8 3 8 -3 18 -1 22 5 3 6 1 11 -5 11 -6 0 -8 5 -5 10 3
6 11 10 16 10 6 0 7 -5 3 -12 -4 -7 -3 -8 5 -4 6 4 9 11 6 16 -3 4 3 14 13 21
15 13 16 12 3 -3 -15 -20 -2 -25 17 -6 7 7 12 9 12 6 0 -12 -152 -131 -262
-204 -100 -67 -130 -92 -76 -63 11 6 22 8 25 6 9 -10 -56 -37 -89 -37 -25 0
-29 3 -18 10 8 5 10 10 4 10 -6 0 -11 7 -11 15 0 8 5 15 11 15 6 0 4 5 -4 10
-16 10 -22 90 -7 90 4 0 6 4 3 8 -3 5 6 16 20 26 13 11 24 26 24 34 0 30 23
92 35 92 6 0 17 16 25 35 12 31 26 40 53 36 4 0 7 6 7 14 0 8 4 15 9 15 5 0 7
28 5 62 -5 74 1 98 24 98 8 0 27 10 41 23 14 12 19 14 12 5 -7 -10 -10 -18 -5
-18 5 0 2 -5 -6 -10 -13 -8 -13 -10 2 -10 15 0 32 16 33 30 0 10 31 45 55 65
14 11 8 1 -13 -22 -35 -37 -37 -42 -21 -51 15 -9 14 -13 -17 -41 l-34 -32 33
16 c19 9 43 18 54 20 12 3 29 12 38 20 31 28 31 -1 0 -30 -17 -16 -30 -25 -30
-21 0 5 -7 3 -15 -4 -13 -11 -14 -10 -9 5 6 15 4 16 -14 6 -11 -6 -24 -16 -27
-21 -3 -6 -14 -10 -24 -10 -9 0 -26 -7 -37 -16 -10 -8 -14 -13 -7 -10 6 4 15
1 18 -5 4 -6 -2 -13 -14 -16 -23 -6 -27 -23 -9 -41 8 -8 8 -15 -1 -26 -7 -9
-11 -21 -9 -28 3 -7 -1 -28 -9 -45 -7 -18 -13 -36 -12 -40 3 -21 -4 -34 -33
-64 -25 -25 -27 -29 -10 -20 13 7 26 19 29 27 3 7 9 11 14 8 6 -3 18 0 27 7 9
7 5 0 -11 -15 -15 -15 -25 -32 -21 -37 3 -6 -2 -9 -12 -7 -12 2 -18 -2 -16
-11 2 -8 -3 -11 -12 -8 -19 7 -31 -9 -15 -19 9 -5 7 -11 -5 -19 -15 -12 -15
-13 0 -19 22 -8 40 4 23 16 -10 7 -8 8 8 3 12 -3 24 -1 28 4 4 7 -1 8 -11 4
-12 -4 -15 -3 -10 6 4 6 16 9 26 6 10 -3 22 0 26 6 5 8 2 10 -8 7 -8 -4 -21
-2 -29 4 -11 8 -11 9 2 5 9 -3 22 -1 30 4 12 7 12 9 -1 9 -13 0 -13 1 0 10 13
8 13 10 0 10 -10 0 -7 5 8 16 12 8 22 20 22 26 0 5 18 30 40 55 21 25 48 63
59 86 11 23 39 64 61 91 42 50 47 60 30 54 -6 -2 -39 -44 -73 -93 -35 -50 -68
-90 -75 -90 -6 0 -19 -10 -27 -23 -9 -12 -20 -20 -25 -17 -4 3 -11 -2 -14 -11
-4 -9 -9 -14 -12 -11 -3 3 2 19 11 36 9 18 14 35 11 39 -2 4 2 16 10 27 14 18
14 18 14 -4 0 -12 -5 -31 -11 -43 -6 -11 -8 -22 -5 -25 3 -3 15 15 28 41 12
25 26 46 30 46 5 0 4 -9 -2 -21 -7 -11 -10 -23 -7 -25 2 -3 32 42 65 98 46 77
75 113 114 144 29 23 56 42 61 42 4 1 20 8 37 17 34 18 44 19 35 5 -3 -5 -2
-10 4 -10 5 0 13 5 16 10 3 6 1 10 -5 10 -6 0 -8 5 -4 11 9 16 -36 1 -58 -19
-16 -14 -18 -14 -18 0 0 9 12 23 26 33 14 9 23 19 20 22 -3 3 -17 -2 -31 -11
-20 -13 -34 -9 -22 7 1 2 -4 11 -10 19 -7 8 -10 18 -7 21 4 3 14 -3 24 -15 16
-20 17 -20 17 -2 0 10 -4 21 -8 24 -4 3 -3 12 2 20 8 11 12 12 16 2 9 -23 23
-1 16 26 -5 23 -4 25 9 15 22 -19 29 -4 11 23 -9 14 -11 24 -5 24 6 0 16 -8
22 -17 9 -14 10 -11 4 16 -4 22 -3 31 4 27 10 -6 28 66 23 93 -1 8 2 10 10 5
8 -5 11 -2 6 8 -4 12 0 15 16 12 12 -2 16 -2 10 2 -20 9 -15 23 6 17 15 -4 22
3 32 31 7 20 17 36 23 36 5 0 1 10 -10 22 -10 12 -13 18 -6 14 7 -4 12 -2 12
6 0 8 -6 20 -12 27 -11 10 -9 11 6 5 15 -6 18 -4 13 9 -4 11 1 18 14 22 10 4
19 10 19 15 0 4 10 6 23 3 12 -3 19 -3 15 2 -10 10 14 33 30 28 8 -3 10 0 6
10 -5 14 0 14 42 1 26 -8 50 -17 53 -20z m321 -12 c0 -17 -26 -70 -68 -137
-61 -97 -91 -151 -189 -334 l-23 -44 0 39 c0 31 18 72 79 182 79 142 189 322
197 322 2 0 4 -13 4 -28z m-820 -323 c0 -5 4 -8 9 -5 5 3 11 -8 14 -24 7 -32
-47 -164 -77 -190 -14 -11 -13 -5 4 26 l22 39 -22 -25 c-12 -13 -29 -25 -38
-26 -9 -2 -23 -11 -31 -21 -12 -15 -13 -16 -8 -1 3 9 1 18 -5 20 -7 3 -8 9 -3
19 5 8 10 19 10 24 2 24 38 94 46 89 5 -3 9 -2 8 3 -4 22 2 43 11 38 6 -3 10
-1 10 5 0 6 6 8 13 4 6 -4 9 -4 5 1 -9 9 9 35 23 35 5 0 9 -5 9 -11z"/>
<path d="M3420 9536 c-14 -9 -46 -23 -73 -31 -53 -19 -123 -82 -133 -122 -4
-14 -1 -56 6 -92 14 -73 18 -261 6 -331 -14 -83 -16 -90 -34 -90 -21 0 -92
-57 -92 -74 0 -7 18 -24 39 -38 37 -24 41 -25 55 -9 8 9 19 28 25 44 11 28 31
37 31 13 0 -8 11 -23 23 -33 13 -10 35 -36 49 -59 22 -34 36 -43 104 -67 44
-15 88 -27 99 -27 11 0 56 -29 100 -64 72 -58 187 -126 212 -126 6 0 23 -11
39 -25 30 -26 50 -30 121 -26 31 2 63 -7 115 -30 40 -19 77 -39 81 -46 14 -22
26 -14 33 22 8 45 34 60 76 46 82 -29 109 -13 173 101 21 36 49 72 62 79 34
18 49 47 62 120 16 97 14 159 -9 204 -11 21 -25 66 -31 99 -12 68 -44 133 -69
141 -9 3 -72 59 -140 125 -139 134 -196 170 -315 195 -44 10 -107 30 -140 46
-102 48 -144 56 -300 63 -123 5 -154 4 -175 -8z"/>
<path d="M4075 3911 c-5 -23 1 -39 26 -75 35 -49 47 -53 111 -34 27 8 37 16
33 26 -3 7 -8 24 -11 36 -7 28 -83 76 -122 76 -25 0 -31 -5 -37 -29z"/>
</g>
</svg>
